
<svg width="60" height="60" viewBox="0 0 60 60" xmlns="http://www.w3.org/2000/svg">
  <g fill="#FF92A4" fill-opacity="0.1">
    <path d="M30 54.35l-20.45-18.32C4.4 31.36 0 27.28 0 21.5 0 16.42 4.42 12 9.5 12c2.74 0 5.41 1.31 7.5 3.59C18.09 13.31 20.76 12 23.5 12 28.58 12 33 16.42 33 21.5c0 5.78-4.4 9.86-9.55 14.53L30 54.35z" transform="translate(15 3)"/>
    <path d="M30 54.35l-20.45-18.32C4.4 31.36 0 27.28 0 21.5 0 16.42 4.42 12 9.5 12c2.74 0 5.41 1.31 7.5 3.59C18.09 13.31 20.76 12 23.5 12 28.58 12 33 16.42 33 21.5c0 5.78-4.4 9.86-9.55 14.53L30 54.35z" transform="translate(-15 -3)"/>
  </g>
</svg>
